<?xml version="1.0" encoding="UTF-8"?>
<!DOCTYPE svg PUBLIC "-//W3C//DTD SVG 1.1//EN" "http://www.w3.org/Graphics/SVG/1.1/DTD/svg11.dtd">
<svg xmlns="http://www.w3.org/2000/svg" version="1.1" viewBox="0 0 77 77" stroke="none">
	<rect width="100%" height="100%" fill="#ffffff"/>
	<path d="M20,20h7v1h-7z M28,20h2v1h-2z M33,20h2v1h-2z M39,20h2v1h-2z M45,20h2v1h-2z M48,20h1v2h-1z M50,20h7v1h-7z M20,21h1v6h-1z M26,21h1v6h-1z M29,21h1v1h-1z M31,21h1v4h-1z M32,21h1v1h-1z M34,21h1v2h-1z M36,21h1v3h-1z M39,21h1v1h-1z M43,21h2v1h-2z M46,21h1v1h-1z M50,21h1v6h-1z M56,21h1v6h-1z M22,22h3v3h-3z M35,22h1v4h-1z M37,22h2v1h-2z M41,22h1v1h-1z M44,22h1v3h-1z M52,22h3v3h-3z M28,23h1v6h-1z M29,23h2v1h-2z M33,23h1v1h-1z M38,23h1v1h-1z M42,23h1v2h-1z M45,23h1v1h-1z M47,23h1v2h-1z M29,24h1v1h-1z M34,24h1v1h-1z M37,24h1v2h-1z M43,24h1v1h-1z M30,25h1v4h-1z M32,25h1v6h-1z M33,25h1v1h-1z M36,25h1v2h-1z M39,25h2v1h-2z M45,25h1v1h-1z M21,26h5v1h-5z M34,26h1v4h-1z M38,26h1v1h-1z M40,26h1v3h-1z M42,26h1v1h-1z M44,26h1v2h-1z M46,26h1v3h-1z M48,26h1v1h-1z M51,26h5v1h-5z M29,27h1v4h-1z M31,27h1v1h-1z M33,27h1v1h-1z M39,27h1v1h-1z M41,27h1v1h-1z M43,27h1v1h-1z M20,28h1v5h-1z M24,28h1v1h-1z M26,28h2v1h-2z M35,28h2v1h-2z M47,28h1v1h-1z M49,28h2v3h-2z M51,28h3v1h-3z M56,28h1v1h-1z M25,29h1v2h-1z M31,29h1v5h-1z M38,29h2v1h-2z M42,29h1v3h-1z M44,29h2v2h-2z M48,29h1v1h-1z M52,29h2v1h-2z M55,29h1v1h-1z M23,30h1v2h-1z M26,30h3v1h-3z M33,30h1v1h-1z M35,30h1v2h-1z M39,30h1v2h-1z M43,30h1v2h-1z M47,30h1v1h-1z M51,30h1v1h-1z M54,30h1v3h-1z M22,31h1v5h-1z M24,31h1v2h-1z M27,31h1v3h-1z M34,31h1v1h-1z M36,31h2v1h-2z M40,31h2v2h-2z M46,31h1v2h-1z M53,31h1v4h-1z M55,31h1v2h-1z M26,32h1v1h-1z M33,32h1v2h-1z M37,32h2v1h-2z M47,32h1v5h-1z M50,32h1v1h-1z M56,32h1v1h-1z M23,33h1v1h-1z M25,33h1v2h-1z M29,33h1v1h-1z M34,33h3v1h-3z M38,33h1v1h-1z M41,33h5v1h-5z M49,33h1v1h-1z M51,33h2v1h-2z M20,34h2v1h-2z M26,34h1v1h-1z M28,34h1v1h-1z M35,34h1v1h-1z M37,34h1v2h-1z M43,34h1v1h-1z M45,34h1v1h-1z M48,34h1v7h-1z M51,34h1v1h-1z M54,34h1v6h-1z M21,35h1v1h-1z M23,35h2v1h-2z M27,35h1v1h-1z M33,35h2v1h-2z M38,35h3v1h-3z M42,35h1v2h-1z M49,35h1v2h-1z M20,36h1v1h-1z M24,36h1v1h-1z M26,36h1v1h-1z M31,36h2v2h-2z M33,36h1v1h-1z M35,36h1v1h-1z M38,36h1v1h-1z M43,36h3v1h-3z M50,36h2v1h-2z M53,36h1v2h-1z M55,36h1v2h-1z M21,37h1v1h-1z M23,37h1v1h-1z M25,37h1v6h-1z M28,37h2v2h-2z M36,37h2v1h-2z M39,37h2v1h-2z M45,37h1v2h-1z M52,37h1v3h-1z M22,38h1v1h-1z M24,38h1v2h-1z M26,38h1v1h-1z M32,38h1v1h-1z M34,38h1v3h-1z M36,38h1v1h-1z M38,38h1v1h-1z M40,38h1v1h-1z M46,38h1v7h-1z M47,38h1v1h-1z M49,38h1v2h-1z M20,39h1v3h-1z M23,39h1v6h-1z M28,39h1v2h-1z M30,39h2v2h-2z M33,39h1v3h-1z M37,39h1v3h-1z M41,39h2v1h-2z M44,39h1v1h-1z M50,39h1v2h-1z M55,39h1v1h-1z M21,40h1v1h-1z M26,40h1v1h-1z M29,40h1v2h-1z M35,40h1v5h-1z M36,40h1v1h-1z M39,40h3v1h-3z M43,40h1v5h-1z M53,40h1v1h-1z M24,41h1v3h-1z M38,41h1v2h-1z M42,41h1v2h-1z M44,41h1v2h-1z M47,41h1v2h-1z M51,41h2v3h-2z M21,42h1v1h-1z M26,42h1v1h-1z M32,42h1v1h-1z M36,42h1v1h-1z M40,42h2v2h-2z M45,42h1v1h-1z M48,42h1v1h-1z M50,42h1v3h-1z M53,42h2v3h-2z M20,43h1v1h-1z M28,43h1v8h-1z M30,43h1v2h-1z M34,43h1v1h-1z M21,44h2v1h-2z M26,44h2v1h-2z M31,44h1v7h-1z M32,44h1v2h-1z M36,44h1v1h-1z M39,44h1v4h-1z M40,44h1v1h-1z M44,44h1v3h-1z M48,44h2v2h-2z M56,44h1v1h-1z M20,45h2v1h-2z M24,45h1v1h-1z M29,45h1v5h-1z M33,45h1v3h-1z M37,45h1v4h-1z M38,45h1v1h-1z M42,45h1v1h-1z M47,45h1v3h-1z M52,45h1v8h-1z M22,46h2v1h-2z M25,46h3v1h-3z M30,46h1v1h-1z M34,46h2v2h-2z M41,46h1v4h-1z M43,46h1v1h-1z M45,46h2v1h-2z M50,46h1v3h-1z M53,46h2v1h-2z M24,47h1v1h-1z M36,47h1v1h-1z M40,47h1v1h-1z M42,47h1v1h-1z M49,47h1v2h-1z M54,47h1v3h-1z M55,47h1v1h-1z M20,48h3v1h-3z M25,48h3v1h-3z M32,48h1v5h-1z M46,48h1v1h-1z M48,48h1v5h-1z M51,48h1v1h-1z M56,48h1v1h-1z M30,49h1v1h-1z M35,49h1v4h-1z M36,49h1v1h-1z M43,49h3v1h-3z M47,49h1v1h-1z M20,50h7v1h-7z M33,50h2v1h-2z M37,50h1v2h-1z M43,50h1v2h-1z M45,50h1v1h-1z M50,50h1v1h-1z M53,50h1v2h-1z M20,51h1v6h-1z M26,51h1v6h-1z M29,51h1v3h-1z M38,51h2v2h-2z M42,51h1v2h-1z M44,51h1v1h-1z M47,51h1v1h-1z M54,51h1v6h-1z M56,51h1v3h-1z M22,52h3v3h-3z M28,52h1v1h-1z M30,52h2v1h-2z M34,52h1v3h-1z M45,52h1v2h-1z M49,52h3v1h-3z M55,52h1v1h-1z M31,53h1v1h-1z M33,53h1v3h-1z M36,53h1v2h-1z M39,53h3v1h-3z M43,53h2v2h-2z M47,53h1v4h-1z M50,53h2v1h-2z M32,54h1v1h-1z M37,54h1v3h-1z M38,54h1v1h-1z M40,54h1v1h-1z M48,54h1v1h-1z M50,54h1v1h-1z M29,55h2v1h-2z M41,55h1v2h-1z M44,55h1v1h-1z M46,55h1v2h-1z M51,55h2v1h-2z M55,55h1v2h-1z M21,56h5v1h-5z M28,56h1v1h-1z M31,56h2v1h-2z M35,56h1v1h-1z M39,56h1v1h-1z M42,56h2v1h-2z M49,56h1v1h-1z M53,56h1v1h-1z M56,56h1v1h-1z" fill="#000000"/>
</svg>
