<?xml version="1.0" encoding="UTF-8"?>
<!DOCTYPE svg PUBLIC "-//W3C//DTD SVG 1.1//EN" "http://www.w3.org/Graphics/SVG/1.1/DTD/svg11.dtd">
<svg xmlns="http://www.w3.org/2000/svg" version="1.1" viewBox="0 0 81 81" stroke="none">
	<rect width="100%" height="100%" fill="#ffffff"/>
	<path d="M20,20h7v1h-7z M30,20h1v1h-1z M32,20h1v1h-1z M37,20h3v1h-3z M41,20h1v1h-1z M43,20h4v1h-4z M48,20h2v1h-2z M51,20h1v1h-1z M54,20h7v1h-7z M20,21h1v6h-1z M26,21h1v6h-1z M29,21h1v1h-1z M31,21h1v2h-1z M33,21h2v1h-2z M36,21h1v6h-1z M37,21h1v1h-1z M42,21h1v3h-1z M44,21h4v1h-4z M50,21h1v1h-1z M54,21h1v6h-1z M60,21h1v6h-1z M22,22h3v3h-3z M28,22h1v6h-1z M32,22h1v1h-1z M34,22h2v1h-2z M40,22h2v2h-2z M43,22h2v1h-2z M46,22h1v5h-1z M51,22h2v1h-2z M56,22h3v3h-3z M29,23h2v1h-2z M33,23h1v2h-1z M35,23h1v1h-1z M37,23h3v1h-3z M45,23h1v3h-1z M47,23h3v1h-3z M52,23h1v1h-1z M29,24h1v1h-1z M32,24h1v3h-1z M39,24h1v1h-1z M41,24h1v2h-1z M43,24h2v1h-2z M49,24h1v1h-1z M51,24h1v1h-1z M31,25h1v1h-1z M40,25h1v2h-1z M47,25h1v1h-1z M52,25h1v3h-1z M21,26h5v1h-5z M30,26h1v3h-1z M34,26h1v1h-1z M38,26h1v1h-1z M42,26h1v3h-1z M44,26h1v3h-1z M48,26h1v2h-1z M50,26h1v2h-1z M55,26h5v1h-5z M31,27h1v1h-1z M33,27h1v1h-1z M39,27h1v1h-1z M41,27h1v1h-1z M20,28h1v1h-1z M22,28h5v1h-5z M29,28h1v1h-1z M32,28h1v1h-1z M34,28h1v1h-1z M37,28h1v1h-1z M40,28h1v6h-1z M45,28h3v1h-3z M49,28h1v1h-1z M54,28h5v1h-5z M21,29h1v1h-1z M24,29h2v1h-2z M28,29h1v1h-1z M33,29h1v1h-1z M39,29h1v1h-1z M41,29h1v1h-1z M43,29h1v1h-1z M50,29h3v1h-3z M54,29h1v1h-1z M56,29h1v3h-1z M58,29h3v1h-3z M22,30h2v1h-2z M26,30h2v1h-2z M37,30h1v1h-1z M42,30h1v1h-1z M47,30h1v2h-1z M49,30h2v1h-2z M52,30h1v2h-1z M55,30h1v1h-1z M23,31h2v1h-2z M29,31h1v1h-1z M31,31h1v4h-1z M35,31h1v3h-1z M36,31h1v1h-1z M39,31h1v2h-1z M41,31h1v1h-1z M43,31h1v1h-1z M46,31h1v1h-1z M48,31h1v1h-1z M50,31h2v1h-2z M57,31h1v2h-1z M60,31h1v1h-1z M20,32h1v4h-1z M22,32h1v3h-1z M24,32h1v1h-1z M26,32h1v1h-1z M32,32h1v4h-1z M37,32h2v1h-2z M44,32h2v1h-2z M49,32h1v1h-1z M51,32h1v2h-1z M53,32h1v1h-1z M58,32h1v2h-1z M21,33h1v1h-1z M23,33h1v2h-1z M27,33h2v1h-2z M33,33h2v1h-2z M36,33h1v1h-1z M38,33h1v1h-1z M42,33h1v2h-1z M46,33h1v4h-1z M48,33h1v1h-1z M50,33h1v1h-1z M52,33h1v1h-1z M54,33h1v1h-1z M56,33h1v3h-1z M60,33h1v1h-1z M25,34h2v1h-2z M29,34h2v3h-2z M34,34h1v5h-1z M47,34h1v3h-1z M53,34h1v1h-1z M59,34h1v2h-1z M24,35h2v1h-2z M33,35h1v1h-1z M39,35h1v1h-1z M41,35h1v1h-1z M43,35h1v3h-1z M48,35h1v3h-1z M50,35h1v5h-1z M54,35h1v1h-1z M57,35h1v2h-1z M21,36h1v2h-1z M26,36h1v1h-1z M31,36h1v5h-1z M35,36h4v1h-4z M42,36h1v1h-1z M45,36h1v1h-1z M49,36h1v3h-1z M52,36h2v1h-2z M55,36h1v2h-1z M58,36h1v2h-1z M20,37h1v1h-1z M25,37h1v1h-1z M28,37h1v3h-1z M30,37h1v1h-1z M32,37h1v5h-1z M33,37h1v1h-1z M36,37h1v3h-1z M39,37h2v1h-2z M51,37h1v1h-1z M54,37h1v1h-1z M56,37h1v3h-1z M59,37h2v1h-2z M24,38h1v3h-1z M26,38h1v1h-1z M37,38h2v1h-2z M40,38h3v2h-3z M45,38h3v1h-3z M57,38h1v1h-1z M20,39h1v1h-1z M29,39h2v1h-2z M35,39h1v1h-1z M46,39h1v2h-1z M48,39h1v1h-1z M51,39h1v1h-1z M26,40h2v1h-2z M29,40h1v1h-1z M34,40h1v1h-1z M38,40h2v2h-2z M40,40h1v1h-1z M45,40h1v1h-1z M47,40h1v1h-1z M49,40h1v3h-1z M53,40h1v1h-1z M58,40h1v1h-1z M60,40h1v2h-1z M20,41h1v1h-1z M27,41h2v1h-2z M33,41h1v6h-1z M35,41h2v2h-2z M42,41h1v4h-1z M43,41h2v1h-2z M48,41h1v1h-1z M51,41h1v1h-1z M54,41h1v1h-1z M56,41h1v3h-1z M59,41h1v1h-1z M21,42h1v3h-1z M23,42h1v1h-1z M26,42h1v1h-1z M30,42h1v3h-1z M37,42h2v1h-2z M41,42h1v2h-1z M44,42h4v1h-4z M52,42h1v1h-1z M55,42h1v2h-1z M57,42h1v2h-1z M25,43h1v1h-1z M28,43h1v1h-1z M31,43h1v3h-1z M32,43h1v1h-1z M34,43h1v3h-1z M35,43h1v1h-1z M38,43h2v1h-2z M43,43h1v3h-1z M46,43h1v3h-1z M20,44h1v1h-1z M22,44h3v1h-3z M26,44h2v1h-2z M29,44h1v2h-1z M36,44h2v1h-2z M40,44h1v1h-1z M44,44h2v1h-2z M47,44h1v1h-1z M49,44h1v1h-1z M53,44h1v1h-1z M58,44h3v1h-3z M24,45h1v1h-1z M28,45h1v5h-1z M35,45h1v2h-1z M37,45h3v1h-3z M45,45h1v1h-1z M48,45h1v2h-1z M50,45h2v1h-2z M54,45h4v1h-4z M59,45h2v1h-2z M20,46h1v1h-1z M25,46h1v4h-1z M26,46h1v1h-1z M30,46h1v1h-1z M32,46h1v2h-1z M36,46h1v3h-1z M37,46h1v1h-1z M40,46h2v1h-2z M44,46h1v1h-1z M47,46h1v7h-1z M49,46h1v1h-1z M52,46h1v4h-1z M53,46h1v1h-1z M55,46h1v1h-1z M21,47h1v3h-1z M34,47h1v1h-1z M38,47h2v1h-2z M41,47h1v1h-1z M43,47h1v2h-1z M46,47h1v1h-1z M50,47h2v2h-2z M54,47h1v1h-1z M56,47h2v1h-2z M59,47h2v1h-2z M22,48h2v1h-2z M26,48h1v1h-1z M30,48h1v1h-1z M33,48h1v1h-1z M37,48h2v1h-2z M40,48h1v1h-1z M45,48h1v3h-1z M48,48h1v3h-1z M49,48h1v1h-1z M55,48h1v2h-1z M57,48h2v1h-2z M20,49h1v4h-1z M24,49h1v1h-1z M29,49h1v1h-1z M32,49h1v1h-1z M35,49h1v1h-1z M39,49h1v1h-1z M46,49h1v2h-1z M50,49h1v1h-1z M53,49h2v4h-2z M56,49h1v8h-1z M57,49h1v1h-1z M60,49h1v1h-1z M22,50h1v1h-1z M26,50h1v1h-1z M34,50h1v1h-1z M36,50h3v1h-3z M40,50h2v2h-2z M44,50h1v3h-1z M59,50h1v1h-1z M24,51h1v1h-1z M29,51h1v1h-1z M32,51h1v1h-1z M39,51h1v3h-1z M43,51h1v1h-1z M52,51h1v6h-1z M55,51h1v2h-1z M57,51h1v4h-1z M23,52h1v1h-1z M25,52h2v1h-2z M30,52h2v1h-2z M33,52h2v1h-2z M37,52h1v4h-1z M42,52h1v2h-1z M45,52h2v1h-2z M49,52h1v3h-1z M50,52h1v1h-1z M58,52h2v1h-2z M28,53h2v1h-2z M31,53h2v4h-2z M35,53h2v1h-2z M38,53h1v1h-1z M40,53h2v1h-2z M43,53h1v1h-1z M48,53h1v1h-1z M51,53h1v2h-1z M60,53h1v1h-1z M20,54h7v1h-7z M34,54h1v1h-1z M44,54h1v1h-1z M46,54h1v4h-1z M47,54h1v1h-1z M50,54h1v2h-1z M54,54h1v1h-1z M59,54h1v2h-1z M20,55h1v6h-1z M26,55h1v6h-1z M28,55h3v4h-3z M35,55h1v2h-1z M38,55h1v1h-1z M40,55h2v2h-2z M43,55h1v3h-1z M22,56h3v3h-3z M33,56h2v1h-2z M42,56h1v5h-1z M44,56h1v5h-1z M45,56h1v2h-1z M47,56h3v1h-3z M53,56h1v4h-1z M54,56h2v1h-2z M57,56h2v2h-2z M60,56h1v2h-1z M38,57h2v1h-2z M41,57h1v3h-1z M50,57h2v1h-2z M55,57h1v2h-1z M59,57h1v1h-1z M31,58h1v1h-1z M33,58h2v1h-2z M36,58h2v1h-2z M47,58h4v1h-4z M54,58h1v1h-1z M56,58h2v2h-2z M32,59h1v2h-1z M34,59h1v2h-1z M38,59h3v1h-3z M43,59h1v1h-1z M47,59h2v1h-2z M52,59h1v1h-1z M59,59h1v1h-1z M21,60h5v1h-5z M28,60h1v1h-1z M30,60h2v1h-2z M33,60h1v1h-1z M37,60h1v1h-1z M39,60h2v1h-2z M45,60h1v1h-1z M47,60h1v1h-1z M49,60h1v1h-1z M51,60h1v1h-1z M54,60h3v1h-3z M58,60h1v1h-1z" fill="#000000"/>
</svg>
